<svg id="visual" viewBox="0 0 960 540" width="960" height="540" xmlns="http://www.w3.org/2000/svg" xmlns:xlink="http://www.w3.org/1999/xlink" version="1.1"><path d="M0 55L17.8 51.3C35.7 47.7 71.3 40.3 106.8 41.2C142.3 42 177.7 51 213.2 51C248.7 51 284.3 42 320 43C355.7 44 391.3 55 426.8 61.3C462.3 67.7 497.7 69.3 533.2 63.8C568.7 58.3 604.3 45.7 640 41.2C675.7 36.7 711.3 40.3 746.8 42.2C782.3 44 817.7 44 853.2 42.2C888.7 40.3 924.3 36.7 942.2 34.8L960 33L960 0L942.2 0C924.3 0 888.7 0 853.2 0C817.7 0 782.3 0 746.8 0C711.3 0 675.7 0 640 0C604.3 0 568.7 0 533.2 0C497.7 0 462.3 0 426.8 0C391.3 0 355.7 0 320 0C284.3 0 248.7 0 213.2 0C177.7 0 142.3 0 106.8 0C71.3 0 35.7 0 17.8 0L0 0Z" fill="#1b262c"></path><path d="M0 82L17.8 78.3C35.7 74.7 71.3 67.3 106.8 70C142.3 72.7 177.7 85.3 213.2 86.3C248.7 87.3 284.3 76.7 320 77.7C355.7 78.7 391.3 91.3 426.8 100.3C462.3 109.3 497.7 114.7 533.2 107.3C568.7 100 604.3 80 640 72.8C675.7 65.7 711.3 71.3 746.8 75.8C782.3 80.3 817.7 83.7 853.2 82.7C888.7 81.7 924.3 76.3 942.2 73.7L960 71L960 31L942.2 32.8C924.3 34.7 888.7 38.3 853.2 40.2C817.7 42 782.3 42 746.8 40.2C711.3 38.3 675.7 34.7 640 39.2C604.3 43.7 568.7 56.3 533.2 61.8C497.7 67.3 462.3 65.7 426.8 59.3C391.3 53 355.7 42 320 41C284.3 40 248.7 49 213.2 49C177.7 49 142.3 40 106.8 39.2C71.3 38.3 35.7 45.7 17.8 49.3L0 53Z" fill="#1f3540"></path><path d="M0 233L17.8 235.7C35.7 238.3 71.3 243.7 106.8 233.8C142.3 224 177.7 199 213.2 182C248.7 165 284.3 156 320 167.7C355.7 179.3 391.3 211.7 426.8 230.5C462.3 249.3 497.7 254.7 533.2 253.8C568.7 253 604.3 246 640 227.2C675.7 208.3 711.3 177.7 746.8 180.3C782.3 183 817.7 219 853.2 237C888.7 255 924.3 255 942.2 255L960 255L960 69L942.2 71.7C924.3 74.3 888.7 79.7 853.2 80.7C817.7 81.7 782.3 78.3 746.8 73.8C711.3 69.3 675.7 63.7 640 70.8C604.3 78 568.7 98 533.2 105.3C497.7 112.7 462.3 107.3 426.8 98.3C391.3 89.3 355.7 76.7 320 75.7C284.3 74.7 248.7 85.3 213.2 84.3C177.7 83.3 142.3 70.7 106.8 68C71.3 65.3 35.7 72.7 17.8 76.3L0 80Z" fill="#224456"></path><path d="M0 325L17.8 330.3C35.7 335.7 71.3 346.3 106.8 352.7C142.3 359 177.7 361 213.2 354.8C248.7 348.7 284.3 334.3 320 335.2C355.7 336 391.3 352 426.8 356.5C462.3 361 497.7 354 533.2 346.8C568.7 339.7 604.3 332.3 640 325C675.7 317.7 711.3 310.3 746.8 312.2C782.3 314 817.7 325 853.2 334C888.7 343 924.3 350 942.2 353.5L960 357L960 253L942.2 253C924.3 253 888.7 253 853.2 235C817.7 217 782.3 181 746.8 178.3C711.3 175.7 675.7 206.3 640 225.2C604.3 244 568.7 251 533.2 251.8C497.7 252.7 462.3 247.3 426.8 228.5C391.3 209.7 355.7 177.3 320 165.7C284.3 154 248.7 163 213.2 180C177.7 197 142.3 222 106.8 231.8C71.3 241.7 35.7 236.3 17.8 233.7L0 231Z" fill="#24536d"></path><path d="M0 417L17.8 416C35.7 415 71.3 413 106.8 413.8C142.3 414.7 177.7 418.3 213.2 416.7C248.7 415 284.3 408 320 409C355.7 410 391.3 419 426.8 419.8C462.3 420.7 497.7 413.3 533.2 410.5C568.7 407.7 604.3 409.3 640 404.8C675.7 400.3 711.3 389.7 746.8 388C782.3 386.3 817.7 393.7 853.2 398.2C888.7 402.7 924.3 404.3 942.2 405.2L960 406L960 355L942.2 351.5C924.3 348 888.7 341 853.2 332C817.7 323 782.3 312 746.8 310.2C711.3 308.3 675.7 315.7 640 323C604.3 330.3 568.7 337.7 533.2 344.8C497.7 352 462.3 359 426.8 354.5C391.3 350 355.7 334 320 333.2C284.3 332.3 248.7 346.7 213.2 352.8C177.7 359 142.3 357 106.8 350.7C71.3 344.3 35.7 333.7 17.8 328.3L0 323Z" fill="#276385"></path><path d="M0 503L17.8 504.8C35.7 506.7 71.3 510.3 106.8 511.3C142.3 512.3 177.7 510.7 213.2 504.3C248.7 498 284.3 487 320 487.8C355.7 488.7 391.3 501.3 426.8 505C462.3 508.7 497.7 503.3 533.2 498C568.7 492.7 604.3 487.3 640 483.7C675.7 480 711.3 478 746.8 480.7C782.3 483.3 817.7 490.7 853.2 493.3C888.7 496 924.3 494 942.2 493L960 492L960 404L942.2 403.2C924.3 402.3 888.7 400.7 853.2 396.2C817.7 391.7 782.3 384.3 746.8 386C711.3 387.7 675.7 398.3 640 402.8C604.3 407.3 568.7 405.7 533.2 408.5C497.7 411.3 462.3 418.7 426.8 417.8C391.3 417 355.7 408 320 407C284.3 406 248.7 413 213.2 414.7C177.7 416.3 142.3 412.7 106.8 411.8C71.3 411 35.7 413 17.8 414L0 415Z" fill="#2b729e"></path><path d="M0 541L17.8 541C35.7 541 71.3 541 106.8 541C142.3 541 177.7 541 213.2 541C248.7 541 284.3 541 320 541C355.7 541 391.3 541 426.8 541C462.3 541 497.7 541 533.2 541C568.7 541 604.3 541 640 541C675.7 541 711.3 541 746.8 541C782.3 541 817.7 541 853.2 541C888.7 541 924.3 541 942.2 541L960 541L960 490L942.2 491C924.3 492 888.7 494 853.2 491.3C817.7 488.7 782.3 481.3 746.8 478.7C711.3 476 675.7 478 640 481.7C604.3 485.3 568.7 490.7 533.2 496C497.7 501.3 462.3 506.7 426.8 503C391.3 499.3 355.7 486.7 320 485.8C284.3 485 248.7 496 213.2 502.3C177.7 508.7 142.3 510.3 106.8 509.3C71.3 508.3 35.7 504.7 17.8 502.8L0 501Z" fill="#3282b8"></path></svg>