<?xml version="1.0" encoding="UTF-8" standalone="no"?>
<!-- Created with Inkscape (http://www.inkscape.org/) -->

<svg
   width="254.06485mm"
   height="143.13959mm"
   viewBox="0 0 254.06485 143.13959"
   version="1.1"
   id="svg5"
   xmlns="http://www.w3.org/2000/svg"
   xmlns:svg="http://www.w3.org/2000/svg">
  <defs
     id="defs2" />
  <g
     id="layer1"
     transform="translate(35.783597,-108.47917)">
    <g
       id="g859"
       transform="matrix(0.26458333,0,0,0.26458333,-35.803528,109.07609)">
      <path
         d="M 0.08023341,62.743913 H 15.323326 c 12.403103,3.545454 30.800091,-12.186395 55.506269,-7.754577 24.706181,4.431819 49.312335,6.007576 74.018515,8.666667 24.70617,2.659091 52.5815,0.368213 77.08763,1.353061 24.50613,0.984849 48.91223,-0.590909 73.41837,-2.462121 24.50612,-1.772727 49.11228,-3.742424 73.81846,-6.401515 24.70617,-2.560606 49.31233,-5.909091 74.01851,-10.340909 24.70618,-4.431819 49.31234,-9.94697 74.01851,-11.818182 24.70619,-1.772728 48.31209,6.984847 73.01827,8.757575 24.70618,1.871212 50.51263,4.113636 75.01877,5 24.50612,0.787879 48.71218,-6.666666 73.2183,-4.007575 24.50614,2.560606 49.11229,7.878788 73.81848,12.310606 24.70617,4.431818 49.31232,7.977273 74.01851,8.962121 24.70617,0.984849 49.31233,-0.590909 61.71543,-1.477273 l 12.30308,-0.787878 V -2.2560882 H 948.01735 886.30192 812.28341 738.46493 665.04657 591.22811 517.20959 443.19108 369.17257 295.35411 221.93574 148.11727 74.098759 12.383322 0.08024552 Z"
         fill="#3282b8"
         id="path824"
         style="stroke-width:0.992519" />
      <path
         d="m 0.08023341,62.743913 v 15 C 12.483336,80.225245 49.392571,69.379336 74.098751,71.436108 c 24.706181,2.001947 49.429099,8.273157 74.135269,8.849628 24.70618,0.576472 50.51651,4.289567 75.02265,4.317552 24.50613,0.02798 47.39124,-5.845666 71.89737,-6.859375 24.50613,-0.958883 49.31234,-0.717219 74.01852,-0.689006 24.70617,0.02821 49.31234,-0.858907 74.01852,-2.310994 24.70618,-1.397263 49.31233,-8.531917 74.0185,-10.477439 24.70619,-2.000347 49.31235,-3.068768 74.01853,-2.601948 24.70618,0.521647 49.31233,2.523479 73.81846,4.141415 24.50613,1.563111 45.71144,4.881427 70.21756,6.937972 24.50614,2.001718 46.69909,10.390005 71.40526,12.337126 24.70619,1.94712 53.27517,7.309497 77.98135,6.78945 24.70619,-0.520047 51.26359,-8.099047 63.66669,-9.126576 l 12.003,-5 v -15 l -12.30308,0.424558 c -12.4031,0.47927 -37.00926,1.328387 -61.71543,0.751915 -24.70619,-0.576473 -32.63545,-8.190904 -57.34163,-10.686284 -24.70618,-2.49538 -49.18502,-9.036731 -73.69115,-10.49019 -24.50613,-1.508285 -59.22821,-21.147448 -85.02127,-12 -25.79306,9.147448 -48.31208,6.069906 -73.01826,5 -24.70618,-1.015079 -46.31158,-20.624522 -71.01776,-19.665868 -24.70619,1.013481 -61.36553,25.615328 -83.60456,29.291504 -24.49377,4.048894 -48.72855,7.977103 -73.43472,9.374365 -24.70618,1.452088 -49.31235,6.172124 -73.81847,7.131008 -24.50614,1.013708 -48.91224,1.863054 -73.41837,1.28681 C 197.4296,62.585488 172.82344,60.583655 148.11726,59.075142 123.41109,57.566629 111.37424,57.58796 88.348708,50.165936 65.323173,42.743912 60.323189,37.743912 45.323235,42.743912 c -14.999955,5 -25.999921,12.000001 -34.999893,16.000001 z"
         fill="#2d77a7"
         id="path826"
         style="stroke-width:0.740538" />
      <path
         d="m 0.08023341,77.743913 v 29.999997 c 12.40310259,6.4 48.98211359,-2.07786 73.68829359,2.42214 24.70618,4.5 49.972803,2.88092 74.678983,2.88092 24.70617,0 47.18163,7.79694 71.68777,9.69694 24.50612,1.8 49.72199,-4.70801 74.22811,-4.70801 24.50613,0 49.10275,-0.49199 73.80892,-2.29199 24.70619,-1.9 51.24664,-2.99676 75.95282,-5.69676 24.70617,-2.7 50.3597,-3.33987 75.06588,-7.03987 24.70618,-3.700002 47.33092,-11.280919 72.0371,-11.280919 24.70618,0 48.51214,4.117552 73.01826,6.017552 24.50614,1.8 49.51239,1.300002 74.01851,3.999997 24.50614,2.6 47.91128,8.90216 72.61745,13.40216 24.70618,4.5 50.42151,5.74982 75.12769,4.74982 24.70618,-1 49.90431,-7.25198 62.30741,-9.15198 l 12.003,-2 V 77.743913 l -12.30308,2.800002 c -12.4031,1.9 -37.00926,5.5 -61.71543,6.5 -24.70619,1 -49.31234,-0.6 -74.01851,-4.1 -24.70619,-3.5 -49.31234,-8.9 -73.81848,-12.5 -24.50612,-3.7 -48.91223,-5.7 -73.41836,-8.5 -24.50613,-2.9 -49.11228,-6.5 -73.81846,-7.4 -24.70618,-0.8 -49.31233,1.2 -74.01852,4.9 -24.70617,3.6 -49.31233,9 -74.01851,11.6 -24.70618,2.7 -49.31234,2.7 -74.01851,2.7 -24.70618,0 -49.31234,0 -73.81846,1.8 -24.50614,1.9 -48.91224,5.5 -73.41837,5.5 -24.50613,0 -49.11229,-3.6 -73.81847,-4.6 -24.70617,-1 -43.31079,-3.049995 -68.017019,-6.700002 -24.70623,-3.650007 -44.776986,-2 -52.013009,3e-6 -7.236023,2.000003 -18.004504,6 -18.004504,6 z"
         fill="#296d96"
         id="path828"
         style="stroke-width:1.00013" />
      <path
         d="m 0.08023341,137.74391 c 0,10 35.06813359,23.08454 59.77431259,26.78454 24.706181,3.7 99.221984,2.49258 123.928154,2.49258 24.70618,0 14.14691,-24.82712 38.65304,-20.32712 24.50613,4.5 48.41223,1.35 72.91837,5.05 24.50612,3.7 49.11228,5.3 73.81846,3.5 24.70617,-1.8 49.31233,-7.2 74.01851,-13.5 24.70618,-6.3 49.31234,-13.7 74.01851,-16.3 24.70619,-2.7 49.31234,-0.7 74.01852,2 24.70618,2.6 49.31233,6 73.81846,5 24.50613,-1 48.91224,-6.4 73.41836,-3.5 24.50614,2.8 49.11229,13.8 73.81848,21 24.70617,7.1 49.31232,10.5 74.01851,9.5 24.70617,-1 49.31233,-6.4 61.71543,-9 l 12.30308,-2.7 v -40 l -12.30308,1.8 c -12.4031,1.9 -37.00926,5.5 -61.71543,6.5 -24.70619,1 -49.31234,-0.6 -74.01851,-5.1 -24.70619,-4.5 -49.31234,-11.899997 -73.81848,-14.499995 -24.50612,-2.7 -48.91223,-0.7 -73.41836,-2.5 -24.50613,-1.9 -49.11228,-7.5 -73.81846,-7.5 -24.70618,0 -49.31233,5.6 -74.01852,9.3 -24.70617,3.699998 -49.31233,5.299995 -74.01851,7.999995 -24.70618,2.7 -49.31234,6.3 -74.01851,8.2 -24.70618,1.8 -49.31234,1.8 -73.81846,1.8 -24.50614,0 -48.91224,0 -73.41837,-1.8 -24.50613,-1.9 -49.11229,-5.5 -73.81847,-5.5 -24.70617,0 -49.312327,3.6 -74.018508,-0.9 -24.70618,-4.5 -35.008771,-4.8 -44.011023,-2.8 l -30.00750559,5 c 0,0 -0.01103601,20.00001 0,30 z"
         fill="#276385"
         id="path830"
         style="stroke-width:1.00013" />
      <path
         d="M 0.08024552,304.50292 12.383322,297.8567 c 12.403102,-6.46657 37.009257,-19.75901 61.715437,-0.17962 24.706181,19.39977 49.312341,71.49172 74.018511,79.57496 24.70618,8.08323 49.31234,-27.84226 73.81847,-40.77543 24.50613,-12.75354 48.91223,-2.69442 73.41837,2.51479 24.50612,5.02957 49.11228,5.02957 73.81846,-4.84995 24.70617,-9.87951 49.31233,-29.63853 74.01851,-42.75132 24.70618,-13.29244 49.31234,-19.75903 74.01851,-3.59255 24.70619,16.16646 49.31234,54.96598 74.01852,52.09195 24.70618,-3.05367 49.31233,-47.96053 73.81846,-60.8937 24.50613,-12.75356 48.91224,6.28696 73.41836,36.82362 24.50614,30.53668 49.11229,72.56949 73.81848,74.00651 24.70617,1.43703 49.31232,-37.36251 74.01851,-61.61221 24.70617,-24.24971 49.31233,-33.94959 61.71543,-38.61991 l 12.30308,-4.84993 v -147 l -12.30308,2.75916 c -12.4031,4.67031 -37.00926,14.37019 -61.71543,16.16647 -24.70619,1.79627 -49.31234,-4.31105 -74.01851,-17.06461 -24.70619,-12.93317 -27.45623,-21.83145 -51.96236,-26.86102 -24.50613,-5.20919 -81.501,15.42004 -106.00713,17.21631 -24.50613,1.79628 -38.37963,-26.10115 -63.08581,-30.771458 -24.70618,-4.84994 -41.31034,18.705208 -66.01651,23.555148 -24.70618,4.67032 -57.31434,-9.18495 -82.02052,2.13157 -24.70618,11.31653 -49.31234,21.01641 -74.01851,24.24972 -24.70618,3.23329 -49.31234,0.35924 -73.81846,-6.28698 -24.50614,-6.64621 -47.03848,-13.1197 -72.09743,-6.96033 -27.9339,6.86602 -31.27956,28.39915 -55.98575,28.39915 -24.70617,0 -49.08451,-21.62717 -73.790695,-28.27339 -24.706181,-6.64621 -48.157,-0.25974 -63.156955,1.74026 H 0.08023341 Z"
         fill="#255875"
         id="path832"
         style="stroke-width:1.34042" />
      <path
         d="m 0.08024552,338.74391 12.30307648,-3.5 c 12.403102,-3.5 37.009257,-10.5 61.715437,-5 24.706181,5.5 49.312341,23.5 74.018511,23.5 24.70618,0 49.31234,-18 73.81847,-25.3 24.50613,-7.4 48.91223,-4 73.41837,-2.4 24.50612,1.7 49.11228,1.7 73.81846,-7.3 24.70617,-9 49.31233,-27 74.01851,-36 24.70618,-9 49.31234,-9 74.01851,8.2 24.70619,17.1 49.31234,51.5 74.01852,52.5 24.70618,1 49.31233,-31.4 73.81846,-43 24.50613,-11.7 48.91224,-2.7 73.41836,10.8 24.50614,13.5 49.11229,31.5 73.81848,32.3 24.70617,0.9 49.31232,-15.5 74.01851,-28.1 24.70617,-12.7 49.31233,-21.7 61.71543,-26.2 l 12.30308,-4.5 v -57 l -12.30308,3.7 c -12.4031,2.6 -37.00926,8 -61.71543,21.5 -24.70619,13.5 -49.31234,35.1 -74.01851,34.3 -24.70619,-0.8 -49.31234,-24.2 -73.81848,-41.2 -24.50612,-17 -48.91223,-27.6 -73.41836,-20.5 -24.50613,7.2 -49.11228,32.2 -73.81846,33.9 -24.70618,1.6 -49.31233,-20 -74.01852,-29 -24.70617,-9 -49.31233,-5.4 -74.01851,2 -24.70618,7.3 -49.31234,18.3 -74.01851,23.8 -24.70618,5.5 -49.31234,5.5 -73.81846,2.7 -24.50614,-2.9 -48.91224,-8.5 -73.41837,-1.4 -24.50613,7.2 -49.11229,27.2 -73.81847,22.7 -24.70617,-4.5 -49.31233,-33.5 -74.018511,-44.3 -24.70618,-10.9 -39.609919,-17.8 -52.013021,-14.2 l -22.00550459,6 z"
         fill="#234e65"
         id="path834"
         style="stroke-width:1.00013" />
      <path
         d="m 0.08024552,360.74391 12.30307648,-1.8 c 12.403102,-1.9 39.981377,13.64887 64.687557,21.64887 24.706181,8 43.339461,16.25114 68.045631,17.15114 24.70618,0.8 52.3131,-25.00001 76.81923,-34.80001 24.50613,-9.9 35.60206,3.20756 60.1082,4.20756 24.50612,1 53.42019,27.69245 78.12638,20.59245 126.80819,266.82687 58.31458,-63.00001 83.02076,-72.00001 24.70618,-9 16.6207,17.61368 41.32687,34.61368 24.70619,17 91.00623,75.58633 115.71241,77.38633 24.70618,1.9 80.52014,-8.4 105.02628,-20 24.50612,-11.7 8.70217,-76.00001 33.20829,-62.50001 24.50614,13.5 49.11229,33.5 73.81848,35.3 24.70617,1.9 53.37817,-3.8934 78.08436,-18.3934 24.70617,-14.5 45.24648,-37.7066 57.64958,-44.1066 l 12.30308,-6.3 v -29 l -12.30308,4.5 c -12.4031,4.5 -37.00926,13.5 -61.71543,26.2 -24.70619,12.6 -49.31234,29 -74.01851,28.1 -24.70619,-0.8 -49.31234,-18.8 -73.81848,-32.3 -24.50612,-13.5 -48.91223,-22.5 -73.41836,-10.8 -24.50613,11.6 -49.11228,44 -73.81846,43 -24.70618,-1 -49.31233,-35.4 -74.01852,-52.5 -24.70617,-17.2 -49.31233,-17.2 -74.01851,-8.2 -24.70618,9 -49.31234,27 -74.01851,36 -24.70618,9 -49.31234,9 -73.81846,7.3 -24.50614,-1.6 -40.7102,-33.69999 -65.21633,-26.29999 -24.50613,7.3 -34.52808,26.92746 -59.23426,26.92746 -24.70617,0 -37.78054,-5.94898 -56.78714,-22.66413 -8.54333,-7.51333 -18.785699,-24.26334 -48.793207,-24.26333 0,0 -12.512953,1.58336 -23.999926,13 -11.486972,11.41664 -41.24300148,69.99999 -41.24300148,69.99999 z"
         fill="#224456"
         id="path836"
         style="stroke-width:1.00013" />
      <path
         d="m 0.08024552,489.74391 12.30307648,2.60941 c 12.403102,2.75436 37.009257,7.97317 61.715437,13.33694 24.706181,5.36376 49.312341,10.58258 74.018511,5.36376 24.70618,-5.36376 49.31234,-21.31011 73.81847,-27.83361 24.50613,-6.52351 48.91223,-3.62418 73.41837,1.7396 24.50612,5.2188 49.11228,13.047 73.81846,18.12085 24.70617,5.07383 49.31233,7.3933 74.01851,11.3074 24.70618,3.91412 49.31234,9.13291 74.01851,9.13291 24.70619,0 49.31234,-5.21879 74.01852,-11.74231 24.70618,-6.52351 49.31233,-14.3517 73.81846,-15.51144 24.50613,-1.15974 48.91224,4.05907 73.41836,5.36377 24.50614,1.15973 49.11229,-1.7396 73.81848,-4.34901 24.70617,-2.75437 49.31232,-5.07384 74.01851,-6.37853 24.70617,-1.15974 49.31233,-1.15974 61.71543,-1.15974 h 12.30308 V 272.74392 c 0,0 -25,0 -40,25 -15,25 -18.85825,40.46546 -43.56442,61.48566 -24.70619,21.02018 -39.76643,18.455 -64.4726,15.70064 -24.70619,-2.60941 -44.00904,-17.81419 -68.51518,-37.38471 -24.50612,-19.5705 -55.71664,-0.12806 -83.52286,30.19841 -27.80621,30.32647 -45.21764,32.75436 -69.92381,30 -25.00625,-10 -34.8621,-18.4119 -59.56829,-43.05627 -24.70618,-24.64435 -61.92197,-60.59616 -86.62814,-47.54916 -24.70618,13.04703 -59.24864,55.16783 -83.95481,65.60543 -24.70619,10.29265 -65.62201,-22.16175 -88.40091,-31.31232 -21.62662,-8.68768 -25.32754,-6.36725 -49.83367,7.98447 -24.50613,14.20673 -33.90092,36.24282 -56.4944,41.26234 -22.59348,5.01952 -70.341345,-14.66813 -86.345339,-35.1705 -16.791971,-21.51183 -28.772782,-37.51399 -34.272765,-48.51399 -2.749992,-5.5 -19.463231,-27.7994 -26.336494,-31.4244 -6.873264,-3.625 -18.40650859,-2.8256 -18.40650859,-2.8256 z"
         fill="#203947"
         id="path838"
         style="stroke-width:1.20417" />
      <path
         d="m 0.08024552,484.74391 12.30307648,2.7 c 12.403102,2.6 37.009257,8 61.715437,10.6 24.706181,2.7 49.312341,2.7 74.018511,-0.8 24.70618,-3.5 49.31234,-10.5 73.81847,-13.2 24.50613,-2.6 48.91223,-1 73.41837,1.7 24.50612,2.7 49.11228,6.3 73.81846,10.8 24.70617,4.5 49.31233,9.9 74.01851,11.7 24.70618,1.8 49.31234,0.2 74.01851,-2.5 24.70619,-2.7 49.31234,-6.3 74.01852,-10 24.70618,-3.7 49.31233,-7.3 73.81846,-6.5 24.50613,0.8 48.91224,6.2 73.41836,7 24.50614,0.8 49.11229,-2.8 73.81848,-3.7 24.70617,-0.8 49.31232,1.2 74.01851,1.2 24.70617,0 49.31233,-2 61.71543,-3 l 12.30308,-1 v -31.99999 l -12.30308,-2.00001 c -12.24232,-1.99013 -37.00926,0 -61.71543,0.8 -24.70619,0.9 -49.31234,2.5 -74.01851,4.4 -24.70619,1.8 -47.01177,-18.19999 -77.01928,-33.19999 -30.00749,-10 -33.16248,-11.21988 -57.66861,-10.41988 -24.50612,0.8 -52.35891,25.41988 -75.62588,36.81123 -22.55363,11.04211 -60.05386,24.90864 -84.76005,24.90864 -24.70617,0 -44.70007,-4.50584 -67.36343,-14.70432 -14.65708,-6.59567 -45.6929,-29.2795 -70.39907,-32.7795 -24.70619,-3.5 -59.58686,24.48382 -84.09298,20.88382 -24.50614,-3.7 -48.91224,-5.7 -73.41837,-1.2 -24.50613,4.5 -25.06082,10.99625 -51.61532,11.50001 -26.5545,0.50376 -41.21516,-9.5 -63.48547,-23.78635 -21.025647,-13.4879 -78.514533,11.78635 -85.514533,14.78635 -7,3 -21.24018359,4 -21.24018359,4 z"
         fill="#1e3039"
         id="path840"
         style="stroke-width:1.00013" />
      <path
         d="m 0.08024552,538.74391 h 12.30307648 61.715437 74.018511 73.81847 73.41837 73.81846 74.01851 74.01851 74.01852 73.81846 73.41836 73.81848 74.01851 61.71543 12.30308 v -55.99999 l -14.00351,2 c -12.4031,1 -35.30883,6.99999 -60.015,6.99999 -24.70619,0 -49.31234,-2 -74.01851,-1.2 -24.70619,0.9 -49.31234,4.5 -73.81848,3.7 -24.50612,-0.8 -48.91223,-6.2 -73.41836,-7 -24.50613,-0.8 -49.11228,2.8 -73.81846,6.5 -24.70618,3.7 -49.31233,7.3 -74.01852,10 -24.70617,2.7 -49.31233,4.3 -74.01851,2.5 -24.70618,-1.8 -49.31234,-7.2 -74.01851,-11.7 -24.70618,-4.5 -49.31234,-8.1 -73.81846,-10.8 -24.50614,-2.7 -48.91224,-4.3 -73.41837,-1.7 -24.50613,2.7 -49.11229,9.7 -73.81847,13.2 -24.70617,3.5 -49.31233,3.5 -74.018511,0.8 -24.70618,-2.6 -49.312335,-8 -61.715437,-10.6 l -12.30307648,-2.7 z"
         fill="#1b262c"
         id="path842"
         style="stroke-width:1.00013" />
    </g>
  </g>
</svg>
